<?xml version="1.0" encoding="utf-8"?>
<!-- Generator: Adobe Illustrator 21.0.2, SVG Export Plug-In . SVG Version: 6.00 Build 0)  -->
<svg version="1.1" id="Layer_1" xmlns="http://www.w3.org/2000/svg" xmlns:xlink="http://www.w3.org/1999/xlink" x="0px" y="0px"
	 viewBox="0 0 70 70" style="enable-background:new 0 0 70 70;" xml:space="preserve">
<style type="text/css">
	.st0{fill:#00A2E9;}
	.st1{display:none;fill:#FFFFFF;}
	.st2{fill-rule:evenodd;clip-rule:evenodd;fill:#FFFFFF;}
</style>
<title>Logo</title>
<desc>Created with Sketch.</desc>
<g id="Popups---Source-Sans-Pro">
	<g id="P1---Login-1" transform="translate(-755.000000, -181.000000)">
		<g id="Logo" transform="translate(755.000000, 181.000000)">
			<circle id="Base" class="st0" cx="35" cy="35" r="35"/>
			<path id="logo-icon" class="st1" d="M24,24l4.9,19.5l9.6-3L30,30.1l11,9.6l8.9-2.8L24,24z M35.6,42.9l3.1,4.4V42L35.6,42.9z"/>
			<path class="st2" d="M19.9,46.5v3.1c0.4,0.2,0.8,0.4,1.2,0.8c0.4,0.5,0.7,1.1,0.8,1.7h3c-0.1-1.3-0.6-2.6-1.6-3.7
				C22.3,47.4,21.1,46.7,19.9,46.5L19.9,46.5z M19.9,19h0.3h20.7c4.7,0,8.6,3.9,8.6,8.6c0,3.3-1.9,6.2-4.7,7.6
				c3.6,1.1,6.2,4.4,6.2,8.2c0,4.7-3.9,8.6-8.6,8.6h-1.7c-0.1-5.1-2-10.2-5.7-14.3c-4.1-4.5-9.5-6.9-15.1-7.2V19L19.9,19z
				 M19.9,33.7c4.7,0.3,9.3,2.3,12.8,6.1c3.1,3.5,4.7,7.8,4.8,12.2h-3.1c-0.1-3.6-1.4-7.2-4-10.1c-2.8-3.1-6.6-4.8-10.5-5.1v-0.7
				v-1.3V33.7L19.9,33.7z M19.9,40c3,0.3,5.9,1.6,8.1,4.1c2.1,2.3,3.1,5.1,3.2,8H28c-0.1-2.1-0.9-4.1-2.4-5.8
				c-1.5-1.7-3.5-2.6-5.5-2.9c-0.1,0-0.1,0-0.2,0V40z"/>
		</g>
	</g>
</g>
</svg>
